<svg width="128" height="128" viewBox="0 0 128 128" fill="none" xmlns="http://www.w3.org/2000/svg" role="img" aria-label="Jackets Stuffed">
  <rect x="8" y="8" width="112" height="112" rx="32" fill="#FFE3D4"/>
  <path d="M44 46C44 44.3431 45.3431 43 47 43H54C56.7614 43 59 45.2386 59 48V80C59 82.7614 56.7614 85 54 85H47C45.3431 85 44 83.6569 44 82V46Z" fill="#A13A00"/>
  <path d="M69 43H82C83.6569 43 85 44.3431 85 46V52C85 53.6569 83.6569 55 82 55H75V82C75 83.6569 73.6569 85 72 85H69C67.3431 85 66 83.6569 66 82V46C66 44.3431 67.3431 43 69 43Z" fill="#4B2409"/>
  <path d="M82 55H75V46C75 44.3431 76.3431 43 78 43H82C83.6569 43 85 44.3431 85 46V52C85 53.6569 83.6569 55 82 55Z" fill="#FFB58E"/>
</svg>
